<?xml version="1.0" encoding="utf-8"?>
<!-- Generator: Adobe Illustrator 16.0.4, SVG Export Plug-In . SVG Version: 6.00 Build 0)  -->
<!DOCTYPE svg PUBLIC "-//W3C//DTD SVG 1.1//EN" "http://www.w3.org/Graphics/SVG/1.1/DTD/svg11.dtd">
<svg version="1.1" id="Layer_1" xmlns="http://www.w3.org/2000/svg" xmlns:xlink="http://www.w3.org/1999/xlink" x="0px" y="0px"
	 width="432px" height="72px" viewBox="0 0 432 72" enable-background="new 0 0 432 72" xml:space="preserve">
<g>
	<g>
		<path fill="#25807D" d="M401.577,433.315c0,0-1.898,1.036-5.276,2.725c-1.688,0.848-3.744,1.861-6.115,2.995
			c-2.36,1.133-4.977,2.458-7.846,3.956c-2.881,1.458-5.998,3.098-9.458,4.548c-3.457,1.44-7.296,2.628-11.372,3.216
			c-4.096,0.588-8.334,0.436-12.576-0.259c-2.111-0.359-4.258-0.931-6.157-2.162c-0.93-0.634-1.768-1.484-2.298-2.533
			c-0.275-0.516-0.465-1.076-0.597-1.629c-0.085-0.343-0.108-0.539-0.151-0.846c-0.029-0.313-0.044-0.624-0.027-0.916
			c0.115-2.404,1.469-4.561,3.299-6.013c1.857-1.447,4.157-2.15,6.336-2.455c1.106-0.161,2.18-0.237,3.284-0.261l1.577-0.02
			l1.617,0.033c2.125,0.084,4.217,0.303,6.255,0.625c4.079,0.635,7.929,1.736,11.448,3.063c3.537,1.316,6.726,2.836,9.615,4.39
			c2.871,1.554,5.427,3.083,7.654,4.488c2.225,1.399,4.164,2.62,5.761,3.625c1.587,1.021,2.852,1.789,3.712,2.319
			c0.862,0.528,1.322,0.811,1.322,0.811c0.055,0.033,0.071,0.104,0.038,0.159c-0.03,0.049-0.092,0.067-0.144,0.046
			c0,0-2-0.829-5.389-2.517c-1.699-0.835-3.721-1.919-6.055-3.121c-2.338-1.193-4.947-2.578-7.842-3.952
			c-2.875-1.371-6.074-2.76-9.502-3.974c-3.436-1.223-7.131-2.272-11.02-3.01c-1.943-0.361-3.939-0.625-5.969-0.761l-1.509-0.073
			l-1.569-0.023c-0.998-0.002-2.039,0.031-3.037,0.136c-2.01,0.218-3.97,0.706-5.603,1.804c-1.593,1.082-2.878,2.827-3.086,4.763
			c-0.03,0.246-0.03,0.474-0.028,0.699c0.014,0.228,0.045,0.57,0.084,0.752c0.086,0.5,0.215,0.979,0.418,1.428
			c0.389,0.906,1.047,1.696,1.876,2.292c1.673,1.198,3.751,1.792,5.804,2.146c1.035,0.178,2.07,0.267,3.105,0.354
			c1.059,0.044,2.09,0.079,3.112,0.057c2.053-0.069,4.063-0.352,6.004-0.775c3.888-0.848,7.458-2.312,10.804-3.783
			c3.348-1.479,6.485-3.003,9.398-4.412c2.92-1.384,5.643-2.635,8.097-3.607c2.438-0.982,4.573-1.814,6.339-2.485
			c3.526-1.352,5.573-2.052,5.573-2.052c0.06-0.021,0.126,0.012,0.146,0.072C401.65,433.23,401.626,433.289,401.577,433.315z"/>
		<path fill="#25807D" d="M401.577,433.104c0,0,2.047,0.7,5.573,2.052c1.766,0.671,3.901,1.502,6.339,2.485
			c2.453,0.973,5.177,2.224,8.097,3.607c2.913,1.409,6.051,2.934,9.399,4.412c3.345,1.471,6.915,2.936,10.803,3.783
			c1.94,0.424,3.951,0.706,6.004,0.775c1.022,0.022,2.054-0.013,3.112-0.057c1.035-0.087,2.071-0.176,3.106-0.354
			c2.052-0.354,4.131-0.947,5.803-2.146c0.829-0.596,1.488-1.386,1.875-2.292c0.205-0.448,0.333-0.928,0.419-1.428
			c0.04-0.182,0.07-0.524,0.084-0.752c0.002-0.226,0.002-0.453-0.028-0.699c-0.208-1.936-1.493-3.681-3.086-4.763
			c-1.633-1.098-3.594-1.586-5.603-1.804c-0.998-0.104-2.039-0.138-3.037-0.136l-1.569,0.023l-1.51,0.073
			c-2.028,0.136-4.024,0.399-5.969,0.761c-3.888,0.737-7.583,1.787-11.018,3.01c-3.429,1.213-6.627,2.603-9.503,3.974
			c-2.895,1.374-5.504,2.759-7.842,3.952c-2.334,1.202-4.356,2.286-6.055,3.121c-3.388,1.688-5.389,2.517-5.389,2.517
			c-0.059,0.024-0.127-0.003-0.151-0.062c-0.022-0.054-0.001-0.114,0.046-0.144c0,0,0.46-0.282,1.322-0.811
			c0.86-0.53,2.125-1.299,3.712-2.319c1.597-1.005,3.536-2.226,5.761-3.625c2.228-1.404,4.783-2.935,7.654-4.488
			c2.89-1.554,6.078-3.073,9.615-4.39c3.519-1.328,7.369-2.429,11.448-3.064c2.038-0.321,4.13-0.54,6.255-0.624l1.618-0.033
			l1.576,0.02c1.104,0.023,2.178,0.1,3.284,0.261c2.179,0.305,4.479,1.008,6.336,2.455c1.829,1.452,3.184,3.608,3.298,6.013
			c0.018,0.292,0.002,0.603-0.026,0.916c-0.043,0.307-0.066,0.503-0.151,0.846c-0.132,0.553-0.32,1.113-0.596,1.629
			c-0.531,1.049-1.369,1.899-2.299,2.533c-1.899,1.231-4.047,1.803-6.157,2.162c-4.242,0.694-8.48,0.847-12.576,0.259
			c-4.076-0.588-7.915-1.775-11.372-3.216c-3.46-1.45-6.577-3.09-9.458-4.548c-2.868-1.498-5.485-2.823-7.846-3.957
			c-2.371-1.133-4.428-2.146-6.115-2.994c-3.378-1.688-5.276-2.725-5.276-2.725c-0.057-0.03-0.077-0.101-0.047-0.157
			C401.466,433.108,401.525,433.087,401.577,433.104z"/>
	</g>
	<circle fill="#25807D" cx="401.531" cy="443.003" r="2.736"/>
	<polygon fill="#25807D" points="193.406,442.407 337.256,441.052 337.256,443.764 	"/>
	<polygon fill="#25807D" points="606.594,442.407 465.807,443.764 465.807,441.052 	"/>
</g>
<g>
	<g>
		<path fill="#25807D" d="M217.649,27.868c0,0-1.986,1.083-5.518,2.848c-1.764,0.887-3.914,1.946-6.394,3.132
			c-2.467,1.185-5.203,2.57-8.203,4.137c-3.011,1.523-6.271,3.238-9.888,4.755c-3.614,1.506-7.628,2.748-11.89,3.361
			c-4.282,0.614-8.714,0.456-13.149-0.27c-2.208-0.376-4.452-0.975-6.438-2.262c-0.972-0.663-1.848-1.552-2.403-2.648
			c-0.288-0.539-0.485-1.126-0.624-1.703c-0.088-0.357-0.114-0.563-0.158-0.885c-0.031-0.326-0.046-0.651-0.028-0.957
			c0.12-2.513,1.535-4.768,3.449-6.286c1.942-1.513,4.346-2.248,6.625-2.567c1.157-0.169,2.279-0.248,3.434-0.272l1.649-0.021
			l1.691,0.035c2.222,0.087,4.408,0.316,6.54,0.653c4.265,0.664,8.29,1.816,11.969,3.203c3.699,1.376,7.032,2.965,10.053,4.59
			c3.002,1.624,5.674,3.222,8.003,4.691c2.326,1.464,4.353,2.741,6.022,3.791c1.659,1.066,2.981,1.87,3.882,2.426
			c0.901,0.551,1.382,0.847,1.382,0.847c0.057,0.034,0.075,0.108,0.039,0.167c-0.031,0.05-0.096,0.07-0.149,0.047
			c0,0-2.091-0.867-5.634-2.631c-1.777-0.872-3.891-2.007-6.331-3.263c-2.444-1.248-5.172-2.695-8.199-4.133
			c-3.006-1.433-6.351-2.885-9.934-4.155c-3.592-1.278-7.456-2.375-11.522-3.146c-2.031-0.378-4.118-0.654-6.24-0.795l-1.578-0.077
			l-1.641-0.024c-1.043-0.002-2.131,0.033-3.175,0.141c-2.101,0.228-4.151,0.739-5.857,1.886c-1.666,1.131-3.009,2.956-3.227,4.979
			c-0.032,0.258-0.032,0.495-0.03,0.73c0.014,0.238,0.047,0.597,0.088,0.787c0.089,0.523,0.225,1.024,0.437,1.492
			c0.406,0.947,1.094,1.773,1.961,2.397c1.75,1.253,3.922,1.873,6.069,2.241c1.082,0.188,2.165,0.279,3.246,0.371
			c1.107,0.046,2.186,0.083,3.254,0.059c2.146-0.072,4.249-0.366,6.277-0.81c4.064-0.887,7.797-2.418,11.295-3.955
			c3.5-1.547,6.781-3.142,9.827-4.614c3.052-1.447,5.899-2.755,8.465-3.771c2.548-1.027,4.782-1.897,6.628-2.599
			c3.686-1.413,5.826-2.146,5.826-2.146c0.063-0.021,0.132,0.012,0.153,0.076C217.725,27.778,217.7,27.84,217.649,27.868z"/>
		<path fill="#25807D" d="M217.649,27.646c0,0,2.139,0.733,5.826,2.146c1.847,0.702,4.079,1.57,6.628,2.599
			c2.564,1.016,5.412,2.325,8.465,3.771c3.046,1.472,6.327,3.067,9.828,4.614c3.496,1.537,7.229,3.068,11.294,3.955
			c2.029,0.443,4.131,0.737,6.277,0.81c1.068,0.024,2.146-0.013,3.254-0.059c1.083-0.092,2.166-0.184,3.248-0.371
			c2.146-0.368,4.319-0.988,6.067-2.241c0.866-0.624,1.556-1.45,1.96-2.397c0.215-0.468,0.349-0.969,0.438-1.492
			c0.041-0.19,0.073-0.549,0.088-0.787c0.002-0.235,0.002-0.473-0.03-0.73c-0.217-2.023-1.561-3.848-3.227-4.979
			c-1.707-1.147-3.757-1.658-5.857-1.886c-1.044-0.108-2.132-0.144-3.175-0.141l-1.641,0.024l-1.579,0.077
			c-2.121,0.142-4.208,0.417-6.24,0.795c-4.064,0.771-7.928,1.868-11.521,3.146c-3.584,1.269-6.928,2.722-9.936,4.155
			c-3.025,1.438-5.754,2.885-8.198,4.133c-2.439,1.256-4.555,2.391-6.329,3.263c-3.543,1.764-5.635,2.631-5.635,2.631
			c-0.062,0.026-0.133-0.004-0.159-0.064c-0.023-0.057-0.001-0.118,0.049-0.149c0,0,0.48-0.296,1.383-0.847
			c0.899-0.556,2.221-1.359,3.881-2.426c1.669-1.05,3.696-2.327,6.023-3.791c2.328-1.468,5-3.067,8.002-4.691
			c3.021-1.625,6.355-3.213,10.054-4.59c3.679-1.389,7.704-2.539,11.969-3.204c2.132-0.336,4.318-0.564,6.54-0.652l1.691-0.035
			l1.648,0.021c1.153,0.024,2.276,0.104,3.434,0.272c2.276,0.319,4.682,1.054,6.624,2.567c1.913,1.518,3.328,3.773,3.447,6.286
			c0.019,0.306,0.003,0.631-0.026,0.957c-0.045,0.321-0.07,0.527-0.158,0.885c-0.139,0.577-0.335,1.164-0.624,1.703
			c-0.555,1.097-1.431,1.985-2.403,2.648c-1.985,1.287-4.23,1.886-6.438,2.262c-4.435,0.726-8.866,0.884-13.148,0.27
			c-4.262-0.613-8.275-1.855-11.89-3.361c-3.618-1.517-6.877-3.231-9.889-4.755c-2.999-1.566-5.734-2.952-8.203-4.138
			c-2.479-1.185-4.63-2.244-6.394-3.131c-3.532-1.765-5.517-2.848-5.517-2.848c-0.06-0.032-0.08-0.105-0.049-0.165
			C217.533,27.651,217.595,27.628,217.649,27.646z"/>
	</g>
	<circle fill="#25807D" cx="217.601" cy="37.997" r="2.861"/>
	<polygon fill="#25807D" points="0,37.374 150.399,35.957 150.399,38.791 	"/>
	<polygon fill="#25807D" points="432,37.374 284.803,38.791 284.803,35.957 	"/>
</g>
</svg>
