<svg id="Layer_1" data-name="Layer 1" xmlns="http://www.w3.org/2000/svg" viewBox="0 0 245.5 21.76"><defs><style>.cls-1{fill:#939598;}</style></defs><title>SLIDESHOW_Ornament</title><path class="cls-1" d="M115.6,6.2a1.39,1.39,0,0,1-1.51.06,13.9,13.9,0,0,1-1.76-.79c-5.19-2.89-10.66-3-16.26-1.6a70.54,70.54,0,0,0-12.92,5C77.94,11.34,72.8,14,67.47,16.23a63.72,63.72,0,0,1-34.16,4.35,71.91,71.91,0,0,1-16-3.93C10.78,14.14,5.42,10.27,2,4A11.76,11.76,0,0,0,.37,1.9C.07,1.57-.25,1.2,0,.7S.74.23,1.18.23A7.46,7.46,0,0,1,6.14,2,8.69,8.69,0,0,1,8,4.22C11,9.05,15.37,12,20.56,14c14.16,5.26,28.33,5.61,42.55.21,6.31-2.4,12.34-5.43,18.55-8A58.87,58.87,0,0,1,96.53,1.55C102.67.72,108.59,1.31,114,4.7,114.6,5.09,115.37,5.37,115.6,6.2Z" transform="translate(0.09 0.08)"/><path class="cls-1" d="M101.63,5.16A13.77,13.77,0,0,1,110.05,8a5.47,5.47,0,0,1,.59.49c.36.35.94.8.57,1.25s-.84-.14-1.24-.4a8.83,8.83,0,0,0-7.53-1.21,38.39,38.39,0,0,0-8.8,3.82,54.21,54.21,0,0,1-8.85,4.19,31.93,31.93,0,0,1-3.14.89,3.85,3.85,0,0,1-2.28-.08c-.47-.18-1.05-.27-1.07-.93s.45-.74.84-.94c5.09-2.58,9.84-5.79,15-8.15A18.32,18.32,0,0,1,101.63,5.16Z" transform="translate(0.09 0.08)"/><path class="cls-1" d="M129.7,6.24a1.41,1.41,0,0,0,1.51.07A15.42,15.42,0,0,0,133,5.53c5.21-2.87,10.68-2.95,16.27-1.51a70.23,70.23,0,0,1,12.89,5.05c5.2,2.51,10.33,5.19,15.64,7.46a63.7,63.7,0,0,0,34.14,4.53A71,71,0,0,0,228,17.22c6.51-2.47,11.89-6.31,15.31-12.54A11.75,11.75,0,0,1,245,2.57c.3-.34.62-.71.38-1.2s-.74-.48-1.18-.48a7.48,7.48,0,0,0-5,1.78,8.69,8.69,0,0,0-1.89,2.17c-3,4.81-7.4,7.78-12.6,9.68-14.18,5.18-28.36,5.45-42.55,0-6.29-2.43-12.31-5.49-18.5-8.15A58.36,58.36,0,0,0,148.79,1.7c-6.13-.87-12.06-.32-17.47,3.05C130.7,5.14,129.94,5.41,129.7,6.24Z" transform="translate(0.09 0.08)"/><path class="cls-1" d="M143.67,5.27a13.78,13.78,0,0,0-8.43,2.78,5.49,5.49,0,0,0-.6.48c-.35.35-.94.8-.57,1.25s.84-.13,1.24-.39a8.82,8.82,0,0,1,7.54-1.17,38.22,38.22,0,0,1,8.78,3.87,54.69,54.69,0,0,0,8.83,4.24,31,31,0,0,0,3.13.9,3.78,3.78,0,0,0,2.28-.07c.47-.17,1.06-.26,1.08-.92s-.45-.75-.84-.95c-5.08-2.6-9.81-5.84-15-8.22A18.19,18.19,0,0,0,143.67,5.27Z" transform="translate(0.09 0.08)"/><path class="cls-1" d="M126.59,5.84c-.16,1.4-.31,3-.53,4.57a5.56,5.56,0,0,1-.63,2c-1.07,1.94-2.85,2.19-4.39.59a3.57,3.57,0,0,1-.66-.93,14.3,14.3,0,0,1-1.57-8.17c.3-2.2,1.46-3.68,3.09-3.93s3.18.7,4.21,2.69A6.12,6.12,0,0,1,126.59,5.84Z" transform="translate(0.09 0.08)"/></svg>