<svg id="Layer_1" data-name="Layer 1" xmlns="http://www.w3.org/2000/svg" xmlns:xlink="http://www.w3.org/1999/xlink" viewBox="0 0 30.13 30.13"><defs><style>.cls-1{fill:none;}.cls-2{clip-path:url(#clip-path);}.cls-3{fill:#531f5b;}.cls-4{fill:#fff;}</style><clipPath id="clip-path" transform="translate(0.01 0.1)"><rect class="cls-1" x="-0.01" y="-0.1" width="30.12" height="30.13"/></clipPath></defs><title>ICON_Twitter_Logo</title><g class="cls-2"><path class="cls-3" d="M30.11,15A15.06,15.06,0,1,1,15.05-.1,15.07,15.07,0,0,1,30.11,15" transform="translate(0.01 0.1)"/></g><path class="cls-3" d="M14.72-.09l-.5,0-11.9,7-.26.43Z" transform="translate(0.01 0.1)"/><path class="cls-3" d="M5.57,3.26c-.29.24-.58.49-.85.75L11.2.4c-.36.1-.73.21-1.08.34Z" transform="translate(0.01 0.1)"/><path class="cls-3" d="M29.73,18.32l-19.39,8.4L30,17c0-.11,0-.22,0-.33L9.28,25.81,30.11,15.13V14.8L8,24.73,30,13.2l0-.27-18,8.6,18-9.12a2.56,2.56,0,0,1,0-.27L8.2,21.94,29.65,11.25a2.68,2.68,0,0,1-.07-.27L7.65,21l11.23-5.64.06,0H19l10.5-4.65c0-.07-.05-.15-.07-.23l-7.31,3.24,7.19-3.61c0-.1-.07-.19-.1-.28L6,20,28.77,8.76l-.11-.24L4.78,19.14,28,7.33c-.05-.08-.09-.16-.14-.23l-7.37,3.18,7-3.71c-.05-.07-.09-.14-.14-.2l-9.68,5.11L4.35,17.26,27.19,6.05,27,5.84,5.74,15.35,26.51,5.19,26.33,5,21.88,7.05,26,4.64l-.17-.18L19.61,8.1,15.48,10,25.68,4.3a1.37,1.37,0,0,1-.17-.17l-12.86,7.2L3.46,15.58,25.31,3.94l-.2-.17L8.22,12.14,24.75,3.45l-.22-.19L3.45,12.87,23.53,2.52l-.25-.17L.44,13,20.66,1,20.23.83,2,10l8-4.63,10-4.64L19.58.6,12.25,4,18.6.33,18.26.25.67,10.47.52,11,18.9,1.76.13,12.91l-.06.46v.07l2.13-1L0,13.74A2.64,2.64,0,0,0,0,14l4.32-2.57L18.65,4.77,0,14.38c0,.11,0,.22,0,.33L21.3,5,0,16.18l0,.28,18.17-9L.13,17.09c0,.09,0,.18,0,.28L17.27,9.45l-17,8.33A2.38,2.38,0,0,0,.3,18L21.62,8.52.5,18.88c0,.09.05.18.07.27L25,8.59,1.13,20.73a1.89,1.89,0,0,0,.11.25l22.55-10L1.65,21.86l.12.23L26.14,11.43,2.51,23.31l.15.22,21.66-9.89L3.14,24.19l.17.22L25.73,14.26l-21.67,11,.19.2,20.41-9.74L4.88,26.08l.22.2L27,16.44l-7.09,3.64L5.48,26.61l.21.17,10-4.51-9.5,4.87.27.19,8.81-3.9L6.86,27.62l.24.15,12.83-6.41,6.16-2.72L7.37,27.93l.33.19,6.35-2.75-6,3,.26.13,10.06-5,7.84-3.4L8.78,28.67l.37.16L23.9,22.39,9.84,29.11l.39.13,13.16-5.45L10.86,29.44l.36.1,11.87-5.35L12,29.71l.42.09,12.46-5.65L13.72,30l.64.05,11.42-5-8.17,4.84c.46-.08.91-.18,1.36-.3l4.83-2.29c.3-.22.59-.44.88-.68l-5.42,2.57,7.12-4.22c.19-.23.39-.46.57-.7L16.22,28.93l11.69-6.11.25-.43-10.38,4.7,10.71-5.32c.07-.14.15-.29.21-.44l-11.1,4.6L29,20.78l.12-.31L17.4,25.76l11.8-5.63c.05-.12.09-.24.13-.36L12.49,27.12l.1-.06,16.85-7.65.09-.3-9.9,4.5,10-4.92c0-.12.06-.25.08-.37" transform="translate(0.01 0.1)"/><path class="cls-3" d="M4.1,4.62,13.77,0,13.06,0,4.61,4.12l-.51.5" transform="translate(0.01 0.1)"/><path class="cls-3" d="M1.81,7.78,18.19.24l-.4-.08L2,7.43l-.2.35" transform="translate(0.01 0.1)"/><path class="cls-3" d="M22.16,26.8a.12.12,0,0,0-.16-.05L15.91,30l.58,0,5.62-3a.12.12,0,0,0,.05-.16" transform="translate(0.01 0.1)"/><path class="cls-3" d="M24.09,20.31a.1.1,0,0,0,.09.06.07.07,0,0,0,.06,0l5.6-2.55a2.5,2.5,0,0,0,.05-.29l-5.75,2.63a.11.11,0,0,0-.05.16" transform="translate(0.01 0.1)"/><path class="cls-3" d="M26.2,24.11a.1.1,0,0,0,.1.07h.05l.87-.34c.09-.11.17-.23.25-.35l-1.2.46a.12.12,0,0,0-.07.16" transform="translate(0.01 0.1)"/><path class="cls-3" d="M12.32,20.75a.12.12,0,0,0-.16-.06l-8.65,4,.16.19,8.59-3.94a.11.11,0,0,0,.06-.15" transform="translate(0.01 0.1)"/><path class="cls-3" d="M16.94,15.8a.12.12,0,0,0-.16-.06L2,22.56l.12.21L16.88,16a.12.12,0,0,0,.06-.16" transform="translate(0.01 0.1)"/><path class="cls-3" d="M.94,20.24l12-5.87a.12.12,0,0,0,.06-.15.12.12,0,0,0-.16-.06L.67,19.47c0,.07,0,.15.07.23l7.15-3.12L.85,20l.09.22" transform="translate(0.01 0.1)"/><path class="cls-3" d="M17.89,20a.14.14,0,0,0,.1.07h.06L30.1,14.49a2.26,2.26,0,0,0,0-.26L23,17.54l7.11-3.68a2.28,2.28,0,0,0,0-.26L17.94,19.86a.13.13,0,0,0-.05.16" transform="translate(0.01 0.1)"/><path class="cls-3" d="M17.7,21.76a.14.14,0,0,0,.1.07h.06L30,16.48l0-.27-7.83,3.43,7.86-3.91a2.44,2.44,0,0,0,0-.27L17.76,21.6a.13.13,0,0,0-.06.16" transform="translate(0.01 0.1)"/><path class="cls-3" d="M28.13,7.5l-8.19,4.4a.12.12,0,0,0-.05.16.13.13,0,0,0,.09.07H20l8.54-3.76a2,2,0,0,0-.1-.21l-5.8,2.55,5.56-3a2,2,0,0,1-.11-.2" transform="translate(0.01 0.1)"/><path class="cls-3" d="M20.2,13.33a.1.1,0,0,0,.09.07h.06l8.79-3.73a2.09,2.09,0,0,0-.08-.23l-5.32,2.26L28.92,9.1a1.47,1.47,0,0,0-.1-.22l-8.57,4.3a.11.11,0,0,0-.05.15" transform="translate(0.01 0.1)"/><path class="cls-3" d="M8.24,11.33a.13.13,0,0,0-.16-.06L0,14.9a2.25,2.25,0,0,0,0,.26l4.18-1.87L0,15.43c0,.09,0,.18,0,.27l8.19-4.21a.12.12,0,0,0,.05-.16" transform="translate(0.01 0.1)"/><path class="cls-3" d="M22.25,7.66a.14.14,0,0,0,.1.07h.06l4.42-2.14c-.06-.06-.11-.13-.16-.19L22.31,7.5a.12.12,0,0,0-.06.16" transform="translate(0.01 0.1)"/><path class="cls-3" d="M21.19,1.21l-13.65,8a.12.12,0,0,0,0,.16.15.15,0,0,0,.09.06.1.1,0,0,0,.07,0L18,3.38,12.54,6.92a.12.12,0,0,0,0,.16.12.12,0,0,0,.16,0l9.86-5.23-.25-.13L14.84,5.7l6.65-4.35-.3-.14" transform="translate(0.01 0.1)"/><path class="cls-3" d="M18,5.86a.1.1,0,0,0,.09.06.09.09,0,0,0,.07,0L23.92,2.8l-.22-.16L18.09,5.7a.12.12,0,0,0-.05.16" transform="translate(0.01 0.1)"/><path class="cls-3" d="M10.41,4.29a.13.13,0,0,0-.16-.06L1.61,8.16a3.54,3.54,0,0,0-.16.34l6.3-2.87L1.06,9.37c0,.12-.09.23-.13.35l9.43-5.28a.12.12,0,0,0,.05-.15" transform="translate(0.01 0.1)"/><path class="cls-3" d="M11,6.08a.13.13,0,0,0-.16,0L.46,11.23c0,.1-.05.21-.08.31L4,9.71l-3.67,2A2.82,2.82,0,0,0,.28,12L10.94,6.24A.13.13,0,0,0,11,6.08" transform="translate(0.01 0.1)"/><path class="cls-3" d="M8.5,4a.11.11,0,0,0,.09.07h.06L17.4.09,17,0l-5.75,2.6L16.06-.06l-.45,0L8.54,3.83A.11.11,0,0,0,8.5,4" transform="translate(0.01 0.1)"/><path class="cls-3" d="M8.83,2.79a.11.11,0,0,0-.16,0L3.39,5.43c-.12.14-.23.29-.35.45L8.77,3a.12.12,0,0,0,.06-.16" transform="translate(0.01 0.1)"/><path class="cls-4" d="M5.38,21a8,8,0,0,0,5.84-1.63,4,4,0,0,1-3.68-2.75,4.36,4.36,0,0,0,1.76-.09,4,4,0,0,1-2.62-1.89,3.75,3.75,0,0,1-.53-2c.28.1.56.22.85.31a2.63,2.63,0,0,0,.89.14A4,4,0,0,1,6.27,10.7a4,4,0,0,1,.44-2.87A11.33,11.33,0,0,0,14.88,12c0-.19-.05-.37-.07-.54A4,4,0,0,1,18,7.18,3.9,3.9,0,0,1,21.6,8.29a.17.17,0,0,0,.17,0,7.66,7.66,0,0,0,2.3-.88l.11-.06a3.78,3.78,0,0,1-.66,1.24,4.66,4.66,0,0,1-1,.95l.56-.1.55-.12.56-.18L24.72,9l-.27.36a7.68,7.68,0,0,1-1.61,1.61.21.21,0,0,0-.1.2A11.46,11.46,0,0,1,19,20a10.36,10.36,0,0,1-5.43,2.69,11.9,11.9,0,0,1-3.21.14,11.25,11.25,0,0,1-5-1.7l0,0" transform="translate(0.01 0.1)"/><path class="cls-3" d="M18.81,7.1A3.89,3.89,0,0,1,21.6,8.29a.13.13,0,0,0,.11.05h.06a7.93,7.93,0,0,0,2.3-.88l.11-.06a3.78,3.78,0,0,1-.66,1.24,4.43,4.43,0,0,1-1,.95l.56-.1a3.65,3.65,0,0,0,.55-.13l.56-.17L24.72,9l-.27.36a7.68,7.68,0,0,1-1.61,1.61.21.21,0,0,0-.1.2A11.5,11.5,0,0,1,19,20a10.36,10.36,0,0,1-5.43,2.69,12.45,12.45,0,0,1-2.11.19c-.36,0-.73,0-1.1,0a11.25,11.25,0,0,1-5-1.7l0,0c.31,0,.61.05.91.05a7.93,7.93,0,0,0,4.93-1.68,4,4,0,0,1-3.68-2.75,5.65,5.65,0,0,0,.71.05,3.79,3.79,0,0,0,1.05-.14,4,4,0,0,1-2.62-1.89,3.75,3.75,0,0,1-.53-2c.28.1.56.22.84.31a2.73,2.73,0,0,0,.9.14A4,4,0,0,1,6.7,7.83,11.37,11.37,0,0,0,14.88,12c0-.19-.05-.37-.07-.54A4,4,0,0,1,18,7.18a4.87,4.87,0,0,1,.84-.08m5.37.29h0M24.72,9h0M18.81,6.6a5,5,0,0,0-.93.09,4.47,4.47,0,0,0-3.57,4.74A10.74,10.74,0,0,1,7.09,7.51a.53.53,0,0,0-.39-.18h0a.51.51,0,0,0-.39.26,4.44,4.44,0,0,0-.48,3.22,4.3,4.3,0,0,0,.57,1.4l0,0-.18,0a.53.53,0,0,0-.27.08.52.52,0,0,0-.23.39,4.32,4.32,0,0,0,.6,2.31,4.44,4.44,0,0,0,1.1,1.25.62.62,0,0,0-.2.15.51.51,0,0,0-.08.49,4.45,4.45,0,0,0,2.85,2.84,7.34,7.34,0,0,1-3.63.92,8.38,8.38,0,0,1-.86,0h0a.5.5,0,0,0-.31.89h0l.07.05a11.69,11.69,0,0,0,5.2,1.77,10.88,10.88,0,0,0,1.14.06,12.59,12.59,0,0,0,2.2-.2,10.83,10.83,0,0,0,5.68-2.82,12,12,0,0,0,3.86-9,8.29,8.29,0,0,0,1.61-1.63L25,9.38a.44.44,0,0,0,.08-.11.46.46,0,0,0,.11-.3.5.5,0,0,0-.49-.5h-.07l-.13,0-.18.08-.24.09a4.56,4.56,0,0,0,.54-1.11.47.47,0,0,0,0-.17.5.5,0,0,0-.5-.5h0a.48.48,0,0,0-.23.07l0,0-.07,0a7.45,7.45,0,0,1-2,.79,4.33,4.33,0,0,0-3-1.21" transform="translate(0.01 0.1)"/><path class="cls-3" d="M15.78,21.49a.16.16,0,0,1-.16-.1.18.18,0,0,1,.09-.22,4.73,4.73,0,0,0,.6-.27.16.16,0,0,1,.15.29,5.07,5.07,0,0,1-.62.29h-.06" transform="translate(0.01 0.1)"/><path class="cls-3" d="M17,20.88a.17.17,0,0,1-.09-.31,9,9,0,0,0,1.26-.87.16.16,0,1,1,.21.25,8.85,8.85,0,0,1-1.3.91.13.13,0,0,1-.08,0" transform="translate(0.01 0.1)"/><path class="cls-3" d="M9.49,13.84H9.44l-1.1-.37a.17.17,0,0,1,.1-.32l1.11.38a.16.16,0,0,1,.1.21.16.16,0,0,1-.16.11" transform="translate(0.01 0.1)"/><path class="cls-3" d="M11.13,17h0l-.89-.15a.17.17,0,0,1-.14-.19.18.18,0,0,1,.19-.14l.89.15a.18.18,0,0,1,.14.19.16.16,0,0,1-.16.14" transform="translate(0.01 0.1)"/></svg>