<svg id="Layer_1" data-name="Layer 1" xmlns="http://www.w3.org/2000/svg" xmlns:xlink="http://www.w3.org/1999/xlink" viewBox="0 0 30.13 30.12"><defs><style>.cls-1{fill:none;}.cls-2{clip-path:url(#clip-path);}.cls-3{clip-path:url(#clip-path-2);}.cls-4{fill:#3c8079;}.cls-5{clip-path:url(#clip-path-3);}.cls-6{clip-path:url(#clip-path-4);}.cls-7{clip-path:url(#clip-path-5);}.cls-8{clip-path:url(#clip-path-6);}.cls-9{clip-path:url(#clip-path-7);}.cls-10{clip-path:url(#clip-path-8);}.cls-11{clip-path:url(#clip-path-10);}.cls-12{clip-path:url(#clip-path-11);}.cls-13{clip-path:url(#clip-path-12);}.cls-14{clip-path:url(#clip-path-14);}.cls-15{clip-path:url(#clip-path-15);}.cls-16{clip-path:url(#clip-path-16);}.cls-17{clip-path:url(#clip-path-18);}.cls-18{clip-path:url(#clip-path-20);}.cls-19{clip-path:url(#clip-path-21);}.cls-20{clip-path:url(#clip-path-22);}.cls-21{clip-path:url(#clip-path-23);}.cls-22{clip-path:url(#clip-path-24);}.cls-23{clip-path:url(#clip-path-25);}.cls-24{clip-path:url(#clip-path-26);}.cls-25{clip-path:url(#clip-path-27);}.cls-26{clip-path:url(#clip-path-28);}.cls-27{clip-path:url(#clip-path-29);}.cls-28{clip-path:url(#clip-path-30);}.cls-29{clip-path:url(#clip-path-32);}.cls-30{clip-path:url(#clip-path-34);}.cls-31{clip-path:url(#clip-path-36);}.cls-32{clip-path:url(#clip-path-38);}.cls-33{clip-path:url(#clip-path-39);}.cls-34{clip-path:url(#clip-path-40);}.cls-35{clip-path:url(#clip-path-42);}.cls-36{clip-path:url(#clip-path-44);}.cls-37{clip-path:url(#clip-path-46);}.cls-38{fill:#fff;}.cls-39{clip-path:url(#clip-path-48);}.cls-40{clip-path:url(#clip-path-50);}.cls-41{clip-path:url(#clip-path-52);}</style><clipPath id="clip-path" transform="translate(-0.03 -0.04)"><rect class="cls-1" x="0.03" y="0.04" width="30.13" height="30.12"/></clipPath><clipPath id="clip-path-2" transform="translate(-0.03 -0.04)"><rect class="cls-1" x="0.03" y="0.04" width="30.12" height="30.12"/></clipPath><clipPath id="clip-path-3" transform="translate(-0.03 -0.04)"><rect class="cls-1" x="2.1" y="0.05" width="12.66" height="7.43"/></clipPath><clipPath id="clip-path-4" transform="translate(-0.03 -0.04)"><rect class="cls-1" x="2.1" y="0.05" width="12.66" height="7.43"/></clipPath><clipPath id="clip-path-5" transform="translate(-0.03 -0.04)"><rect class="cls-1" x="4.76" y="0.55" width="6.49" height="3.6"/></clipPath><clipPath id="clip-path-6" transform="translate(-0.03 -0.04)"><rect class="cls-1" x="4.76" y="0.55" width="6.49" height="3.6"/></clipPath><clipPath id="clip-path-7" transform="translate(-0.03 -0.04)"><rect class="cls-1" x="0.03" y="0.4" width="30.12" height="29.76"/></clipPath><clipPath id="clip-path-8" transform="translate(-0.03 -0.04)"><rect class="cls-1" x="4.15" y="0.11" width="9.66" height="4.66"/></clipPath><clipPath id="clip-path-10" transform="translate(-0.03 -0.04)"><rect class="cls-1" x="1.85" y="0.3" width="16.38" height="7.62"/></clipPath><clipPath id="clip-path-11" transform="translate(-0.03 -0.04)"><rect class="cls-1" x="1.85" y="0.3" width="16.38" height="7.62"/></clipPath><clipPath id="clip-path-12" transform="translate(-0.03 -0.04)"><rect class="cls-1" x="15.95" y="26.88" width="6.26" height="3.27"/></clipPath><clipPath id="clip-path-14" transform="translate(-0.03 -0.04)"><rect class="cls-1" x="24.11" y="17.67" width="5.82" height="2.85"/></clipPath><clipPath id="clip-path-15" transform="translate(-0.03 -0.04)"><rect class="cls-1" x="24.12" y="17.67" width="5.82" height="2.85"/></clipPath><clipPath id="clip-path-16" transform="translate(-0.03 -0.04)"><rect class="cls-1" x="26.23" y="23.63" width="1.28" height="0.69"/></clipPath><clipPath id="clip-path-18" transform="translate(-0.03 -0.04)"><rect class="cls-1" x="3.55" y="20.82" width="8.82" height="4.16"/></clipPath><clipPath id="clip-path-20" transform="translate(-0.03 -0.04)"><rect class="cls-1" x="2.08" y="15.87" width="14.91" height="7.04"/></clipPath><clipPath id="clip-path-21" transform="translate(-0.03 -0.04)"><rect class="cls-1" x="2.08" y="15.87" width="14.91" height="7.04"/></clipPath><clipPath id="clip-path-22" transform="translate(-0.03 -0.04)"><rect class="cls-1" x="0.71" y="14.29" width="12.36" height="6.09"/></clipPath><clipPath id="clip-path-23" transform="translate(-0.03 -0.04)"><rect class="cls-1" x="0.71" y="14.29" width="12.36" height="6.09"/></clipPath><clipPath id="clip-path-24" transform="translate(-0.03 -0.04)"><rect class="cls-1" x="17.92" y="13.75" width="12.22" height="6.48"/></clipPath><clipPath id="clip-path-25" transform="translate(-0.03 -0.04)"><rect class="cls-1" x="17.92" y="13.75" width="12.22" height="6.48"/></clipPath><clipPath id="clip-path-26" transform="translate(-0.03 -0.04)"><rect class="cls-1" x="17.73" y="15.6" width="12.41" height="6.37"/></clipPath><clipPath id="clip-path-27" transform="translate(-0.03 -0.04)"><rect class="cls-1" x="17.73" y="15.6" width="12.41" height="6.37"/></clipPath><clipPath id="clip-path-28" transform="translate(-0.03 -0.04)"><rect class="cls-1" x="19.92" y="7.64" width="8.71" height="4.63"/></clipPath><clipPath id="clip-path-29" transform="translate(-0.03 -0.04)"><rect class="cls-1" x="19.92" y="7.64" width="8.71" height="4.63"/></clipPath><clipPath id="clip-path-30" transform="translate(-0.03 -0.04)"><rect class="cls-1" x="20.23" y="9.02" width="8.96" height="4.52"/></clipPath><clipPath id="clip-path-32" transform="translate(-0.03 -0.04)"><rect class="cls-1" x="0.03" y="11.41" width="8.27" height="4.43"/></clipPath><clipPath id="clip-path-34" transform="translate(-0.03 -0.04)"><rect class="cls-1" x="22.28" y="5.54" width="4.59" height="2.33"/></clipPath><clipPath id="clip-path-36" transform="translate(-0.03 -0.04)"><rect class="cls-1" x="7.52" y="1.36" width="15.04" height="8.19"/></clipPath><clipPath id="clip-path-38" transform="translate(-0.03 -0.04)"><rect class="cls-1" x="18.07" y="2.79" width="5.9" height="3.28"/></clipPath><clipPath id="clip-path-39" transform="translate(-0.03 -0.04)"><rect class="cls-1" x="18.07" y="2.79" width="5.89" height="3.28"/></clipPath><clipPath id="clip-path-40" transform="translate(-0.03 -0.04)"><rect class="cls-1" x="0.97" y="4.37" width="9.49" height="5.5"/></clipPath><clipPath id="clip-path-42" transform="translate(-0.03 -0.04)"><rect class="cls-1" x="0.32" y="6.16" width="10.72" height="5.99"/></clipPath><clipPath id="clip-path-44" transform="translate(-0.03 -0.04)"><rect class="cls-1" x="8.52" y="0.06" width="8.92" height="4.13"/></clipPath><clipPath id="clip-path-46" transform="translate(-0.03 -0.04)"><rect class="cls-1" x="3.08" y="2.86" width="5.8" height="3.15"/></clipPath><clipPath id="clip-path-48" transform="translate(-0.03 -0.04)"><rect class="cls-1" x="16" y="21.16" width="0.33" height="1.25"/></clipPath><clipPath id="clip-path-50" transform="translate(-0.03 -0.04)"><rect class="cls-1" x="16" y="18.33" width="0.33" height="2.45"/></clipPath><clipPath id="clip-path-52" transform="translate(-0.03 -0.04)"><rect class="cls-1" x="13.04" y="6.54" width="1.89" height="2.35"/></clipPath></defs><title>ICON_Facebook_Logo</title><g class="cls-2"><g class="cls-3"><path class="cls-4" d="M30.15,15.11A15.06,15.06,0,1,1,15.09,0,15.06,15.06,0,0,1,30.15,15.11" transform="translate(-0.03 -0.04)"/></g></g><g class="cls-5"><g class="cls-6"><path class="cls-4" d="M14.76.05l-.5,0-11.9,7c-.09.14-.18.28-.26.43Z" transform="translate(-0.03 -0.04)"/></g></g><g class="cls-7"><g class="cls-8"><path class="cls-4" d="M5.62,3.4c-.3.24-.58.49-.86.75L11.24.55c-.36.09-.72.21-1.08.33Z" transform="translate(-0.03 -0.04)"/></g></g><g class="cls-9"><path class="cls-4" d="M29.77,18.47l-19.39,8.4L30,17.11c0-.11,0-.22,0-.33L9.32,26,30.15,15.27v-.33L8,24.87l22-11.53,0-.27-18,8.6,18-9.11c0-.1,0-.19-.05-.28L8.24,22.08,29.69,11.39c0-.09-.05-.18-.07-.27l-21.93,10,11.24-5.65.05,0H19l10.5-4.64c0-.08-.05-.16-.07-.23l-7.31,3.23,7.19-3.61-.1-.28L6,20.13,28.81,8.9a2.56,2.56,0,0,0-.11-.24L4.82,19.29,28.07,7.48c0-.08-.09-.16-.14-.24l-7.37,3.18,7-3.71-.14-.2-9.68,5.12L4.39,17.4,27.23,6.2,27.07,6,5.78,15.49,26.55,5.34l-.18-.21L21.92,7.19l4.13-2.41-.17-.18L19.65,8.24l-4.13,1.92,10.2-5.71-.17-.18-12.86,7.2L3.5,15.73,25.35,4.09l-.19-.18L8.27,12.29l16.52-8.7-.22-.18L3.49,13,23.57,2.67l-.25-.18L.48,13.15l20.22-12L20.27,1,2,10.12l8-4.63L20,.86,19.62.75,12.29,4.16,18.64.47,18.3.4.72,10.61c-.06.17-.11.34-.16.51L19,1.9.17,13.05l-.06.46v.07l2.13-1L.08,13.88a2.64,2.64,0,0,0,0,.29l4.32-2.58L18.69,4.91,0,14.52c0,.11,0,.22,0,.33L21.35,5.14.08,16.32a2.46,2.46,0,0,0,0,.28l18.17-9L.17,17.23c0,.09,0,.19,0,.28L17.31,9.59l-17,8.33c0,.09,0,.18.05.27L21.66,8.66.54,19c0,.08,0,.17.08.26L25.08,8.73,1.17,20.88l.11.24,22.55-10L1.69,22a1.71,1.71,0,0,0,.13.23L26.18,11.57,2.55,23.45l.15.23,21.66-9.9L3.18,24.34a1.84,1.84,0,0,1,.17.22L25.78,14.4,4.1,25.41l.19.2,20.42-9.74L4.92,26.22l.22.2,21.93-9.84L20,20.22,5.53,26.75l.2.17,10-4.51-9.5,4.87.27.19,8.81-3.9L6.9,27.76l.24.15L20,21.51l6.16-2.73L7.41,28.07l.33.2,6.35-2.75-6,2.95.26.13,10.06-5,7.84-3.39L8.82,28.81l.37.16,14.75-6.43L9.88,29.25l.39.13,13.16-5.45L10.9,29.58l.36.1,11.87-5.35L12,29.86l.42.08,12.46-5.65L13.76,30.11l.64.05,11.42-5L17.65,30c.46-.08.91-.18,1.36-.3l4.83-2.29c.3-.21.6-.44.88-.68L19.3,29.26,26.42,25c.2-.23.39-.46.58-.7L16.26,29.08,28,23c.09-.14.17-.29.25-.43L17.82,27.24l10.71-5.33a4.25,4.25,0,0,0,.21-.43l-11.1,4.6L29,20.93a3.05,3.05,0,0,1,.13-.32l-11.68,5.3,11.8-5.64c.05-.12.09-.24.13-.36L12.53,27.26l.1-.05,16.85-7.65.09-.31-9.9,4.5,10-4.92c0-.12.06-.24.08-.36" transform="translate(-0.03 -0.04)"/></g><g class="cls-10"><g class="cls-10"><path class="cls-4" d="M4.15,4.77,13.81.1,13.1.18,4.65,4.26c-.17.16-.34.33-.5.51" transform="translate(-0.03 -0.04)"/></g></g><g class="cls-11"><g class="cls-12"><path class="cls-4" d="M1.85,7.93,18.23.38,17.83.3,2.05,7.57c-.07.12-.14.24-.2.36" transform="translate(-0.03 -0.04)"/></g></g><g class="cls-13"><g class="cls-13"><path class="cls-4" d="M22.2,26.94a.12.12,0,0,0-.16-.05L16,30.15l.59,0,5.61-3a.12.12,0,0,0,.05-.16" transform="translate(-0.03 -0.04)"/></g></g><g class="cls-14"><g class="cls-15"><path class="cls-4" d="M24.13,20.45a.11.11,0,0,0,.09.07h.06L29.88,18a2.74,2.74,0,0,0,.05-.28l-5.75,2.62a.12.12,0,0,0-.05.16" transform="translate(-0.03 -0.04)"/></g></g><g class="cls-16"><g class="cls-16"><path class="cls-4" d="M26.24,24.25a.11.11,0,0,0,.1.07h.05l.88-.34.24-.35-1.2.46a.13.13,0,0,0-.07.16" transform="translate(-0.03 -0.04)"/></g></g><g class="cls-17"><g class="cls-17"><path class="cls-4" d="M12.36,20.89a.12.12,0,0,0-.16-.06l-8.65,4c.05.07.11.13.16.19l8.59-3.93a.12.12,0,0,0,.06-.16" transform="translate(-0.03 -0.04)"/></g></g><g class="cls-18"><g class="cls-19"><path class="cls-4" d="M17,15.94a.13.13,0,0,0-.16-.06L2.08,22.71l.12.2L16.92,16.1a.12.12,0,0,0,.06-.16" transform="translate(-0.03 -0.04)"/></g></g><g class="cls-20"><g class="cls-21"><path class="cls-4" d="M1,20.38l12-5.86a.13.13,0,0,0,.06-.16.12.12,0,0,0-.16-.06L.71,19.61a2,2,0,0,1,.07.23l7.15-3.11-7,3.43.09.22" transform="translate(-0.03 -0.04)"/></g></g><g class="cls-22"><g class="cls-23"><path class="cls-4" d="M17.93,20.16a.12.12,0,0,0,.1.07h.06l12.05-5.59v-.26L23,17.68,30.11,14a2.11,2.11,0,0,0,0-.25L18,20a.12.12,0,0,0-.05.15" transform="translate(-0.03 -0.04)"/></g></g><g class="cls-24"><g class="cls-25"><path class="cls-4" d="M17.75,21.9a.11.11,0,0,0,.09.07h.06l12.18-5.34a2.45,2.45,0,0,1,0-.27l-7.83,3.43,7.86-3.91a2.44,2.44,0,0,0,0-.27L17.8,21.75a.1.1,0,0,0-.05.15" transform="translate(-0.03 -0.04)"/></g></g><g class="cls-26"><g class="cls-27"><path class="cls-4" d="M28.17,7.64,20,12.05a.11.11,0,0,0-.05.15.11.11,0,0,0,.09.07h.06l8.55-3.75-.11-.22-5.8,2.55,5.56-3a2.12,2.12,0,0,0-.11-.21" transform="translate(-0.03 -0.04)"/></g></g><g class="cls-28"><g class="cls-28"><path class="cls-4" d="M20.24,13.48a.1.1,0,0,0,.09.06s0,0,.06,0l8.8-3.74-.09-.22-5.32,2.26L29,9.24,28.87,9l-8.58,4.3a.12.12,0,0,0-.05.16" transform="translate(-0.03 -0.04)"/></g></g><g class="cls-29"><g class="cls-29"><path class="cls-4" d="M8.28,11.47a.11.11,0,0,0-.15-.05L0,15v.26l4.18-1.87L0,15.58a2.17,2.17,0,0,1,0,.26l8.19-4.21a.12.12,0,0,0,0-.16" transform="translate(-0.03 -0.04)"/></g></g><g class="cls-30"><g class="cls-30"><path class="cls-4" d="M22.29,7.8a.12.12,0,0,0,.1.07h.06l4.42-2.14-.16-.18-4.36,2.1a.13.13,0,0,0-.06.16" transform="translate(-0.03 -0.04)"/></g></g><g class="cls-31"><g class="cls-31"><path class="cls-4" d="M21.23,1.36l-13.65,8a.13.13,0,0,0,0,.16.1.1,0,0,0,.09.06H7.7L18,3.52l-5.4,3.54a.12.12,0,0,0,.12.21L22.57,2a2,2,0,0,0-.25-.14L14.88,5.84l6.65-4.35-.3-.13" transform="translate(-0.03 -0.04)"/></g></g><g class="cls-32"><g class="cls-33"><path class="cls-4" d="M18.08,6a.18.18,0,0,0,.09.06.08.08,0,0,0,.07,0L24,2.94l-.21-.15L18.13,5.84a.13.13,0,0,0-.05.17" transform="translate(-0.03 -0.04)"/></g></g><g class="cls-34"><g class="cls-34"><path class="cls-4" d="M10.45,4.43a.12.12,0,0,0-.16,0L1.65,8.3l-.16.34,6.3-2.87L1.1,9.51c0,.12-.09.23-.13.35L10.4,4.59a.12.12,0,0,0,0-.16" transform="translate(-0.03 -0.04)"/></g></g><g class="cls-35"><g class="cls-35"><path class="cls-4" d="M11,6.23a.12.12,0,0,0-.16-.05L.5,11.38c0,.1,0,.2-.08.3L4.07,9.85l-3.68,2c0,.1,0,.21-.07.31L11,6.39a.12.12,0,0,0,0-.16" transform="translate(-0.03 -0.04)"/></g></g><g class="cls-36"><g class="cls-36"><path class="cls-4" d="M8.54,4.13a.11.11,0,0,0,.09.06h.06L17.44.24,17,.17l-5.75,2.6L16.1.09l-.45,0L8.59,4a.12.12,0,0,0-.05.16" transform="translate(-0.03 -0.04)"/></g></g><g class="cls-37"><g class="cls-37"><path class="cls-4" d="M8.87,2.93a.12.12,0,0,0-.16-.05L3.44,5.57c-.13.15-.24.3-.36.45L8.81,3.09a.12.12,0,0,0,.06-.16" transform="translate(-0.03 -0.04)"/></g></g><path class="cls-38" d="M12.66,23.89V15.26a.16.16,0,0,0-.16-.17H11.07a.16.16,0,0,1-.16-.16V12.1a.16.16,0,0,1,.16-.16h1.59V9.57a3.41,3.41,0,0,1,2-3.15,3.7,3.7,0,0,1,1.5-.31h3a.13.13,0,0,1,.13.14V9a.13.13,0,0,1-.13.14H17.79s-1.3-.07-1.3,1.08v1.55a.14.14,0,0,0,.14.14H19.1a.15.15,0,0,1,.15.17L19,15a.15.15,0,0,1-.15.14h-2a.16.16,0,0,0-.17.16v8.62a.21.21,0,0,1-.21.21H12.87a.22.22,0,0,1-.21-.21" transform="translate(-0.03 -0.04)"/><path class="cls-4" d="M19.14,6.11a.13.13,0,0,1,.13.14V9a.13.13,0,0,1-.13.14H17.75c-.2,0-1.26,0-1.26,1.08v1.55a.14.14,0,0,0,.14.14H19.1a.15.15,0,0,1,.15.17L19,15a.15.15,0,0,1-.15.14h-2a.16.16,0,0,0-.17.16v8.62a.21.21,0,0,1-.21.21H12.87a.22.22,0,0,1-.21-.21V15.26a.16.16,0,0,0-.16-.17H11.07a.16.16,0,0,1-.16-.16V12.1a.16.16,0,0,1,.16-.16h1.59V9.57a3.41,3.41,0,0,1,2-3.15,3.7,3.7,0,0,1,1.5-.31h3m0-.49h-3A4.09,4.09,0,0,0,14.42,6a3.84,3.84,0,0,0-2.25,3.61v1.86h-1.1a.67.67,0,0,0-.66.66v2.83a.67.67,0,0,0,.66.66h1.1v8.3a.7.7,0,0,0,.7.71h3.57a.71.71,0,0,0,.71-.71V15.6h1.7A.64.64,0,0,0,19.5,15l.25-2.89a.65.65,0,0,0-.65-.71H17V10.22a.46.46,0,0,1,.27-.48,1.3,1.3,0,0,1,.49-.11h1.39A.63.63,0,0,0,19.77,9V6.25a.63.63,0,0,0-.63-.63" transform="translate(-0.03 -0.04)"/><g class="cls-39"><g class="cls-39"><path class="cls-4" d="M16.16,22.41a.16.16,0,0,1-.16-.16v-.92a.17.17,0,0,1,.16-.17.17.17,0,0,1,.17.17v.92a.16.16,0,0,1-.17.16" transform="translate(-0.03 -0.04)"/></g></g><g class="cls-40"><g class="cls-40"><path class="cls-4" d="M16.16,20.77a.16.16,0,0,1-.16-.16V18.49a.16.16,0,0,1,.16-.16.16.16,0,0,1,.17.16v2.12a.16.16,0,0,1-.17.16" transform="translate(-0.03 -0.04)"/></g></g><g class="cls-41"><g class="cls-41"><path class="cls-4" d="M13.2,8.89h0A.17.17,0,0,1,13,8.71,2.67,2.67,0,0,1,14.7,6.55a.15.15,0,0,1,.21.09.17.17,0,0,1-.08.22,2.32,2.32,0,0,0-1.46,1.87.17.17,0,0,1-.17.16" transform="translate(-0.03 -0.04)"/></g></g></svg>