<svg id="Layer_1" data-name="Layer 1" xmlns="http://www.w3.org/2000/svg" xmlns:xlink="http://www.w3.org/1999/xlink" viewBox="0 0 30.13 30.13"><defs><style>.cls-1{fill:none;}.cls-2{clip-path:url(#clip-path);}.cls-3{fill:#3c8079;}.cls-4{fill:#fff;}</style><clipPath id="clip-path" transform="translate(0.07 -0.04)"><rect class="cls-1" x="-0.07" y="0.04" width="30.12" height="30.13"/></clipPath></defs><title>ICON_Instagram_Logo</title><g class="cls-2"><path class="cls-3" d="M30.05,15.1A15.06,15.06,0,1,1,15,0,15.07,15.07,0,0,1,30.05,15.1" transform="translate(0.07 -0.04)"/></g><path class="cls-3" d="M14.66.05l-.5,0-11.9,7L2,7.48Z" transform="translate(0.07 -0.04)"/><path class="cls-3" d="M5.51,3.4c-.29.24-.58.49-.85.75L11.14.54c-.36.1-.73.21-1.08.33Z" transform="translate(0.07 -0.04)"/><path class="cls-3" d="M29.67,18.46l-19.39,8.4,19.64-9.75c0-.11,0-.22,0-.33L9.22,26,30.05,15.27v-.34L7.92,24.87,30,13.34l0-.27-18,8.6,18-9.12a2.56,2.56,0,0,1-.05-.27L8.14,22.08,29.59,11.39c0-.09-.05-.18-.07-.27l-21.93,10,11.23-5.65.06,0h.06l10.5-4.65c0-.07-.05-.15-.07-.23l-7.31,3.24,7.19-3.61c0-.1-.07-.19-.1-.28L5.92,20.13,28.71,8.89c0-.07-.07-.15-.11-.23L4.72,19.28,28,7.47l-.14-.24-7.37,3.19,7-3.71c0-.07-.09-.14-.14-.2l-9.68,5.11L4.29,17.4,27.13,6.19,27,6,5.68,15.49,26.45,5.33l-.18-.2L21.82,7.19,26,4.78l-.17-.18L19.55,8.24l-4.13,1.91,10.2-5.71a1.37,1.37,0,0,1-.17-.17l-12.86,7.2L3.4,15.72,25.25,4.08l-.2-.18L8.17,12.28,24.69,3.59l-.22-.19L3.39,13,23.47,2.66l-.25-.17L.38,13.14l20.22-12L20.17,1,1.93,10.12l8-4.63,10-4.64L19.52.74,12.19,4.16,18.54.47,18.2.39.61,10.61l-.15.51L18.84,1.9.07,13.05,0,13.51a.17.17,0,0,1,0,.07l2.14-1L0,13.87c0,.1,0,.2,0,.29l4.32-2.57L18.59,4.91-.06,14.52c0,.11,0,.22,0,.33L21.24,5.13,0,16.32l0,.28,18.17-9L.07,17.23c0,.09,0,.18,0,.28L17.21,9.59l-17,8.32a2.56,2.56,0,0,0,0,.27L21.56,8.66.44,19c0,.09,0,.18.07.27L25,8.72,1.07,20.87a1.89,1.89,0,0,0,.11.25l22.55-10L1.59,22l.12.23L26.08,11.57,2.45,23.45l.15.22,21.66-9.89L3.08,24.33l.17.22L25.67,14.4,4,25.41l.19.2L24.6,15.87,4.82,26.22l.22.2L27,16.58l-7.09,3.63L5.42,26.75l.21.17,10-4.51-9.5,4.87.27.19,8.81-3.9L6.8,27.76l.24.15L19.87,21.5,26,18.78,7.31,28.07l.33.19L14,25.51l-6,3,.26.13,10.06-5,7.84-3.4L8.72,28.81l.37.16,14.75-6.44L9.78,29.25l.39.13,13.16-5.45L10.8,29.58l.36.1L23,24.33,11.91,29.85l.42.09,12.46-5.65L13.66,30.11c.21,0,.42,0,.64,0l11.42-5L17.55,30c.46-.08.91-.18,1.36-.3l4.83-2.29c.3-.22.59-.44.88-.68L19.2,29.26,26.32,25c.19-.23.39-.46.58-.7L16.16,29.07,27.85,23c.09-.14.17-.29.25-.43l-10.38,4.7,10.71-5.32c.07-.14.15-.29.21-.44l-11.1,4.6,11.35-5.15c0-.1.08-.21.13-.32L17.34,25.9l11.8-5.63c.05-.12.09-.24.13-.37L12.43,27.25l.1-.05,16.85-7.65c0-.1.06-.2.09-.3l-9.9,4.5,10-4.92c0-.12.06-.25.08-.37" transform="translate(0.07 -0.04)"/><path class="cls-3" d="M4,4.76,13.71.1,13,.18,4.55,4.25,4,4.76" transform="translate(0.07 -0.04)"/><path class="cls-3" d="M1.75,7.92,18.13.38,17.73.3,2,7.57c-.07.12-.14.23-.2.35" transform="translate(0.07 -0.04)"/><path class="cls-3" d="M22.1,26.94a.12.12,0,0,0-.16-.05l-6.09,3.26.59,0,5.61-3a.12.12,0,0,0,.05-.16" transform="translate(0.07 -0.04)"/><path class="cls-3" d="M24,20.44a.12.12,0,0,0,.1.07.07.07,0,0,0,.06,0L29.78,18a2.93,2.93,0,0,0,0-.29l-5.75,2.63a.11.11,0,0,0-.06.15" transform="translate(0.07 -0.04)"/><path class="cls-3" d="M26.14,24.25a.1.1,0,0,0,.1.07h.05l.87-.33c.09-.11.17-.23.25-.35l-1.2.46a.11.11,0,0,0-.07.16" transform="translate(0.07 -0.04)"/><path class="cls-3" d="M12.26,20.89a.12.12,0,0,0-.16-.06l-8.65,4,.16.19L12.2,21a.11.11,0,0,0,.06-.15" transform="translate(0.07 -0.04)"/><path class="cls-3" d="M16.88,15.94a.12.12,0,0,0-.16-.06L2,22.7l.12.21L16.82,16.1a.12.12,0,0,0,.06-.16" transform="translate(0.07 -0.04)"/><path class="cls-3" d="M.88,20.38l12-5.87a.12.12,0,1,0-.1-.21L.61,19.61c0,.07.05.15.07.23l7.15-3.12-7,3.44.09.22" transform="translate(0.07 -0.04)"/><path class="cls-3" d="M17.83,20.16a.14.14,0,0,0,.1.07H18L30,14.63a2.17,2.17,0,0,0,0-.26L22.9,17.68,30,14a2.28,2.28,0,0,0,0-.26L17.88,20a.13.13,0,0,0-.05.16" transform="translate(0.07 -0.04)"/><path class="cls-3" d="M17.64,21.9a.14.14,0,0,0,.1.07h.06L30,16.62l0-.27-7.82,3.43L30,15.87a2.44,2.44,0,0,0,0-.27L17.7,21.74a.13.13,0,0,0-.06.16" transform="translate(0.07 -0.04)"/><path class="cls-3" d="M28.07,7.64,19.88,12a.12.12,0,0,0-.05.16.13.13,0,0,0,.09.07H20L28.52,8.5l-.1-.21-5.8,2.55,5.56-3c0-.07-.07-.14-.11-.2" transform="translate(0.07 -0.04)"/><path class="cls-3" d="M20.14,13.47a.1.1,0,0,0,.09.07h.06l8.79-3.74c0-.07,0-.14-.08-.22l-5.32,2.26,5.18-2.59a1.47,1.47,0,0,0-.1-.22l-8.57,4.3a.11.11,0,0,0-.05.15" transform="translate(0.07 -0.04)"/><path class="cls-3" d="M8.18,11.47A.12.12,0,0,0,8,11.41L-.07,15v.26l4.18-1.88L-.07,15.57a2.44,2.44,0,0,1,0,.27l8.19-4.21a.12.12,0,0,0,0-.16" transform="translate(0.07 -0.04)"/><path class="cls-3" d="M22.19,7.8a.11.11,0,0,0,.1.06.07.07,0,0,0,.06,0l4.41-2.13-.15-.19L22.25,7.64a.12.12,0,0,0-.06.16" transform="translate(0.07 -0.04)"/><path class="cls-3" d="M21.13,1.35l-13.65,8a.12.12,0,0,0,0,.16.15.15,0,0,0,.09.06l.07,0,10.29-6L12.48,7.06a.12.12,0,0,0,0,.16.12.12,0,0,0,.16,0L22.47,2l-.25-.14-7.44,4,6.65-4.35-.3-.14" transform="translate(0.07 -0.04)"/><path class="cls-3" d="M18,6a.1.1,0,0,0,.09.06.08.08,0,0,0,.07,0l5.72-3.12-.21-.15L18,5.84A.12.12,0,0,0,18,6" transform="translate(0.07 -0.04)"/><path class="cls-3" d="M10.35,4.43a.12.12,0,0,0-.16-.06L1.55,8.3c-.06.11-.11.22-.16.33l6.3-2.86L1,9.51c0,.11-.09.23-.13.35L10.3,4.58a.12.12,0,0,0,0-.15" transform="translate(0.07 -0.04)"/><path class="cls-3" d="M10.93,6.22a.13.13,0,0,0-.16,0L.4,11.37c0,.1-.05.2-.08.31L4,9.85l-3.68,2c0,.1,0,.2-.07.3L10.88,6.38a.13.13,0,0,0,0-.16" transform="translate(0.07 -0.04)"/><path class="cls-3" d="M8.44,4.12a.13.13,0,0,0,.09.07h.06L17.34.23,16.9.17,11.15,2.76,16,.08l-.45,0L8.49,4a.11.11,0,0,0-.05.15" transform="translate(0.07 -0.04)"/><path class="cls-3" d="M8.77,2.93a.12.12,0,0,0-.16-.06L3.33,5.57c-.12.14-.23.29-.35.45L8.71,3.09a.12.12,0,0,0,.06-.16" transform="translate(0.07 -0.04)"/><path class="cls-4" d="M17.59,24.34c-1.42,0-2.93,0-4.45,0-.47,0-1,0-1.42,0s-.82,0-1.22-.08a6,6,0,0,1-2-.57,4.68,4.68,0,0,1-1.79-1.6A4.77,4.77,0,0,1,6,20.59a8.38,8.38,0,0,1-.24-1.79c0-.52,0-1,0-1.56,0-1.36,0-2.72,0-4.08,0-.43,0-.86,0-1.3s0-.7.07-1c0-.18,0-.35,0-.52a6.13,6.13,0,0,1,.21-.87,5.25,5.25,0,0,1,.59-1.27,4.83,4.83,0,0,1,.87-1,4.64,4.64,0,0,1,1.62-.91A5.15,5.15,0,0,1,10.05,6a10.34,10.34,0,0,1,1.26-.13c.51,0,1,0,1.53,0,1.36,0,2.71,0,4.07,0,.45,0,.89,0,1.34,0s.83,0,1.24.08a6.18,6.18,0,0,1,2,.57,4.75,4.75,0,0,1,1.47,1.16,4.86,4.86,0,0,1,.91,1.61,6.93,6.93,0,0,1,.22.87c.07.42.09.83.12,1.25s0,1,0,1.56c.05,1.35,0,2.71,0,4.07,0,.44,0,.88,0,1.32s0,.83-.09,1.24a5.75,5.75,0,0,1-.56,2A4.88,4.88,0,0,1,20.81,24a6.93,6.93,0,0,1-.87.22,11.08,11.08,0,0,1-1.28.12c-.33,0-.65,0-1.07,0M18,22.6c.44,0,.88,0,1.32-.08a4.31,4.31,0,0,0,1.19-.28A2.94,2.94,0,0,0,22,20.93a4.14,4.14,0,0,0,.49-1.75c0-.57,0-1.13.06-1.7,0-.41,0-.82,0-1.23,0-.83,0-1.66,0-2.49s0-1.62-.06-2.43a5.74,5.74,0,0,0-.25-1.49A3,3,0,0,0,21,8.24a3.92,3.92,0,0,0-1.59-.55c-.34-.05-.69-.05-1-.08s-.65,0-1,0-.83,0-1.25,0c-.84,0-1.68,0-2.52,0s-1.61,0-2.41.06a5.66,5.66,0,0,0-1.48.25A3,3,0,0,0,8,9.3a3.76,3.76,0,0,0-.4,1.24c-.07.39-.07.79-.11,1.18s0,.67,0,1,0,.87,0,1.31c0,.8,0,1.6,0,2.39s0,1.64.06,2.45a5.51,5.51,0,0,0,.24,1.46A2.93,2.93,0,0,0,9,22a3.8,3.8,0,0,0,1.43.53,11.49,11.49,0,0,0,1.18.1c.33,0,.66,0,1,0,.49,0,1,0,1.48,0,.74,0,1.49,0,2.23,0,.54,0,1.09,0,1.64,0" transform="translate(0.07 -0.04)"/><path class="cls-4" d="M19.76,15.11A4.77,4.77,0,1,1,15,10.33a4.77,4.77,0,0,1,4.74,4.78M15,12.05a3,3,0,0,0-3.05,3,3,3,0,0,0,6.08,0,3,3,0,0,0-3-3.06" transform="translate(0.07 -0.04)"/><path class="cls-4" d="M19.9,11.32a1.14,1.14,0,1,1,1.15-1.14,1.14,1.14,0,0,1-1.15,1.14" transform="translate(0.07 -0.04)"/><path class="cls-4" d="M19,22.1H17.94a.16.16,0,0,1-.16-.16.16.16,0,0,1,.16-.17H19a.17.17,0,0,1,.17.17.17.17,0,0,1-.17.16" transform="translate(0.07 -0.04)"/><path class="cls-4" d="M17.36,22.1H15.18a.16.16,0,0,1-.16-.16.16.16,0,0,1,.16-.17h2.18a.17.17,0,0,1,.17.17.17.17,0,0,1-.17.16" transform="translate(0.07 -0.04)"/></svg>