<?xml version="1.0" encoding="utf-8"?>
<!-- Generator: Adobe Illustrator 16.0.4, SVG Export Plug-In . SVG Version: 6.00 Build 0)  -->
<!DOCTYPE svg PUBLIC "-//W3C//DTD SVG 1.1//EN" "http://www.w3.org/Graphics/SVG/1.1/DTD/svg11.dtd">
<svg version="1.1" id="Layer_1" xmlns="http://www.w3.org/2000/svg" xmlns:xlink="http://www.w3.org/1999/xlink" x="0px" y="0px"
	 width="540px" height="612px" viewBox="0 0 540 612" enable-background="new 0 0 540 612" xml:space="preserve">
<g>
	<g>
		<path fill-rule="evenodd" clip-rule="evenodd" fill="#650360" d="M447.239,485.213c0-59.515,0-118.807,0-178.354
			c-19.309,0-38.357,0-57.632,0c0-19.641,0-39.031,0-58.897c0.918,0,1.941,0,2.965,0c17.297,0,34.594-0.037,51.89,0.047
			c2.215,0.011,2.877-0.594,2.873-2.849c-0.066-36.922-0.047-73.845-0.054-110.768c0-0.788-0.092-1.576-0.152-2.555
			c-29.042,0-57.941,0-87.21,0c0,29.024,0,58.083,0,87.358c-19.918,0-39.467,0-59.154,0c0-48.666,0-97.209,0-145.969
			c68.82,0,137.658,0,206.627,0c0,137.337,0,274.589,0,411.987C487.412,485.213,467.562,485.213,447.239,485.213z"/>
		<path fill-rule="evenodd" clip-rule="evenodd" fill="#650360" d="M239.905,73.181c0,28.527,0,56.984,0,85.637
			c-19.407,0-38.802,0-58.51,0c0-9.604,0-19.233,0-29.049c-29.564,0-58.817,0-88.372,0c0,48.942,0,97.808,0,146.827
			c-19.511,0-38.718,0-58.075,0c0-67.847,0-135.545,0-203.415C103.285,73.181,171.513,73.181,239.905,73.181z"/>
		<path fill-rule="evenodd" clip-rule="evenodd" fill="#650360" d="M33.876,486.268c0-59.125,0-117.987,0-177.068
			c19.301,0,38.502,0,57.934,0c0,39.186,0,78.316,0,117.842c49.443,0,98.659,0,148.065,0c0,19.959,0,39.524,0,59.227
			C171.216,486.268,102.699,486.268,33.876,486.268z"/>
		<path fill-rule="evenodd" clip-rule="evenodd" fill="#650360" d="M181.282,398.117c0-30.798,0-61.148,0-91.816
			c-20.281,0-40.381,0-60.647,0c0-19.708,0-39.101,0-58.844c1.003,0,1.962,0,2.922,0c37.63,0,75.259,0.02,112.888-0.048
			c2.379-0.005,3.193,0.505,3.188,3.072c-0.08,48.201-0.073,96.408-0.015,144.609c0.002,2.231-0.394,3.105-2.904,3.089
			c-17.47-0.116-34.941-0.062-52.412-0.062C183.424,398.117,182.546,398.117,181.282,398.117z"/>
		<path fill-rule="evenodd" clip-rule="evenodd" fill="#650360" d="M271.302,427.68c9.924,0,19.732,0,29.805,0
			c0-11.819,0-23.326,0-34.998c19.463,0,38.656,0,57.977,0c0,31.24,0,62.348,0,93.586c-29.324,0-58.473,0-87.781,0
			C271.302,466.82,271.302,447.509,271.302,427.68z"/>
		<path fill-rule="evenodd" clip-rule="evenodd" fill="#650360" d="M300.552,338.452c0-10.803,0-21.35,0-32.188
			c-9.814,0-19.443,0-29.238,0c0-19.677,0-39.064,0-58.63c29.284,0,58.45,0,87.78,0c0,30.286,0,60.449,0,90.818
			C339.688,338.452,320.308,338.452,300.552,338.452z"/>
		<path fill-rule="evenodd" clip-rule="evenodd" fill="#00837E" d="M447.434,500.221c1.116-3.085,3.539-1.372,5.622-1.687
			c0,4.386,0,8.556,0,12.905c-1.63,0-3.187,0-4.932,0c-0.226-2.146,0.072-4.417-2.313-5.771c-3.638-2.065-7.433-3.784-11.625-3.373
			c-9.02,0.886-14.215,5.651-16.313,14.409c-2.356,9.838,5.985,20.363,16.074,20.533c4.35,0.073,8.247-0.605,11.552-3.682
			c2.72-2.532,3.875-5.651,4.132-9.52c-4.977,0-9.862,0-14.681,0c-1.06-4.629-0.883-4.861,3.462-4.861
			c5.644-0.003,11.286-0.003,16.93,0c4.311,0.001,4.311,0.003,3.705,4.631c-1.064,0.109-2.187,0.226-3.617,0.374
			c0,5.729,0,11.501,0,17.512c-1.845,0-3.392,0-5.224,0c-0.134-1.236-0.271-2.517-0.469-4.35c-5.092,4.248-10.798,5.524-16.882,5.07
			c-6.241-0.464-11.712-2.975-15.514-7.952c-6.445-8.437-7.123-18.931-0.509-28.253
			C423.188,497.247,433.169,495.292,447.434,500.221z"/>
		<path fill-rule="evenodd" clip-rule="evenodd" fill="#00837E" d="M463.024,497.945c2.287,0,4.478-0.459,6.324,0.14
			c1.584,0.514,2.937,2.098,4.115,3.449c6.026,6.904,11.973,13.88,17.927,20.848c1.496,1.751,2.939,3.549,4.36,5.363
			c0.761,0.971,1.42,2.018,2.125,3.031c0.332-0.213,0.663-0.425,0.994-0.638c0.057-0.832,0.158-1.663,0.16-2.495
			c0.012-7.076-0.072-14.152,0.048-21.226c0.043-2.506-0.204-4.352-3.54-3.734c0-1.589,0-2.979,0-4.559c3.975,0,7.967,0,12.193,0
			c0,1.298,0,2.672,0,4.075c-3.446,1.17-3.446,1.17-3.446,5.164c0,10.479,0,20.956,0,31.435c0,0.963,0,1.925,0,2.726
			c-2.931,1.27-4.323-0.581-5.718-2.187c-7.525-8.664-15.012-17.362-22.507-26.053c-1.2-1.392-2.382-2.8-4.105-4.828
			c0,10.02,0,19.17,0,28.533c0.965,0.105,1.91,0.209,3.104,0.34c0,1.323,0,2.697,0,4.56c-3.59,0-7.322,0.204-10.99-0.188
			c-0.66-0.07-1.059-2.592-1.676-4.247c1.74-0.198,2.688-0.307,3.784-0.431c0.066-0.727,0.186-1.418,0.188-2.109
			c0.012-9.852-0.014-19.704,0.031-29.556c0.007-1.618-0.198-2.412-2.176-2.806C461.524,502.015,463.352,499.742,463.024,497.945z"
			/>
		<path fill-rule="evenodd" clip-rule="evenodd" fill="#00837E" d="M286.299,541.886c0-1.719,0-3.036,0-4.531
			c1.471-0.105,2.861-0.204,4.532-0.323c0.049-1.004,0.131-1.957,0.132-2.91c0.01-8.863,0.006-17.728,0.007-26.592
			c0-4.525,0-4.525-4.55-5.048c0-1.35,0-2.732,0-4.54c1.271,0,2.661,0,4.052,0c5.373,0,10.744-0.006,16.117,0.002
			c6.851,0.009,12.194,3.032,16.008,8.552c6.569,9.511,5.146,22.424-3.062,30.146c-3.409,3.208-7.606,4.897-12.08,5.144
			C300.509,542.166,293.526,541.886,286.299,541.886z M296.196,537.189c2.561,0,4.709-0.142,6.832,0.025
			c9.127,0.714,16.998-6.372,18.286-14.879c1.16-7.664-3.53-16.67-10.97-18.701c-3.697-1.009-7.768-0.62-11.662-0.951
			c-2.086-0.177-2.545,0.761-2.523,2.682c0.09,7.974,0.037,15.949,0.037,23.924C296.196,531.783,296.196,534.275,296.196,537.189z"
			/>
		<path fill-rule="evenodd" clip-rule="evenodd" fill="#00837E" d="M242.855,537.188c0,1.738,0,3.051,0,4.554
			c-4.024,0-7.915,0-12.048,0c0-1.44,0-2.808,0-4.356c0.95-0.112,1.895-0.224,3.175-0.375c-0.854-2.409-1.586-4.746-2.551-6.984
			c-0.219-0.509-1.237-0.941-1.895-0.953c-4.656-0.08-9.317-0.107-13.971,0.022c-0.769,0.021-1.888,0.719-2.202,1.4
			c-0.918,1.995-1.51,4.14-2.291,6.405c1.029,0.185,1.859,0.334,2.991,0.537c0,0.997,0.165,1.998-0.058,2.902
			c-0.146,0.594-0.839,1.481-1.311,1.498c-3.734,0.123-7.474,0.068-11.376,0.068c0-1.672,0-3.05,0-4.784
			c3.848,1.092,4.446-1.604,5.39-4.229c3.54-9.854,7.216-19.66,10.909-29.67c-0.839-0.301-1.558-0.558-2.37-0.85
			c0-1.351,0-2.746,0-4.286c4.759,0,9.369,0,13.958,0c0.745,3.782,0.666,4.012-1.94,5.271c1.406,3.884,2.804,7.801,4.24,11.702
			c2.3,6.247,4.725,12.451,6.887,18.746C239.158,536.03,239.818,537.872,242.855,537.188z M222.742,505.989
			c-0.212,0.001-0.424,0.001-0.636,0.002c-2.157,5.969-4.315,11.937-6.567,18.167c4.819,0,9.164,0,13.949,0
			C227.183,517.95,224.963,511.969,222.742,505.989z"/>
		<path fill-rule="evenodd" clip-rule="evenodd" fill="#00837E" d="M138.832,522.901c0,4.617,0,9.236,0,14.009
			c0.949,0.16,1.795,0.302,2.83,0.476c0,1.346,0,2.729,0,4.331c-3.698,0-7.389,0-11.225,0c0-1.454,0-2.769,0-4.269
			c0.873-0.151,1.797-0.312,2.864-0.498c0-11.278,0-22.525,0-33.9c-0.913-0.202-1.764-0.392-2.812-0.625c0-1.334,0-2.717,0-4.293
			c3.682,0,7.38,0,11.22,0c0,1.392,0,2.703,0,4.245c-3.315-0.191-3.125,2.098-3.028,4.422c0.085,2.042,0.018,4.091,0.018,6.726
			c0.932-0.683,1.483-1.014,1.947-1.438c2.564-2.353,5.191-4.646,7.608-7.143c0.735-0.759,1.03-2.07,1.233-3.182
			c0.205-1.118,0.045-2.304,0.045-3.64c3.967,0,7.76,0,11.528,0c0.849,3.859,0.707,3.627-2.574,4.726
			c-1.896,0.635-3.538,2.289-5.059,3.732c-3.699,3.511-7.259,7.166-11.091,10.978c2.541,3.126,4.971,6.155,7.444,9.148
			c2.436,2.947,4.8,5.968,7.431,8.734c1.043,1.098,2.718,1.595,4.481,2.574c0.872,3.599,0.639,3.915-3.475,3.918
			c-2.583,0.002-5.166,0-8.331,0c0.296-2.035,0.544-3.747,0.857-5.896c-3.481-4.126-7.413-8.783-11.344-13.441
			C139.211,522.697,139.021,522.799,138.832,522.901z"/>
		<path fill-rule="evenodd" clip-rule="evenodd" fill="#00837E" d="M328.341,537.304c4.463-0.264,4.463-0.264,4.463-4.467
			c0.002-8.415,0-16.831,0-25.246c0-4.551,0-4.551-4.502-5.133c0-1.357,0-2.745,0-4.326c8.866,0,17.773,0,26.965,0
			c0,2.733,0,5.524,0,8.53c-1.358,0-2.743,0-4.346,0c-0.109-1.124-0.227-2.33-0.365-3.745c-4.036,0-8.013,0-12.225,0
			c0,3.93,0,7.808,0,12.127c2.332,0,4.742,0.221,7.067-0.126c0.756-0.114,1.29-1.711,2.108-2.893c1.11,0,2.611,0,4.328,0
			c0,3.523,0,7.045,0,10.753c-1.532,0-3.091,0-4.819,0c-0.204-0.899-0.415-1.822-0.651-2.859c-2.654,0-5.221,0-8.026,0
			c0,5.617,0,11.205,0,17.033c3.938,0,7.987,0,12.255,0c0.075-1.286,0.153-2.593,0.232-3.899c4.026-1.307,4.716-0.824,4.723,3.299
			c0.01,5.581,0.01,5.581-5.46,5.581c-6.268,0-12.534,0-18.802,0c-0.959,0-1.918,0-2.945,0
			C328.341,540.16,328.341,538.723,328.341,537.304z"/>
		<path fill-rule="evenodd" clip-rule="evenodd" fill="#00837E" d="M92.771,541.762c-9.21,0-18.205,0-27.363,0
			c0-1.549,0-2.927,0-4.445c1.453-0.081,2.771-0.153,4.431-0.245c0.048-0.957,0.134-1.896,0.135-2.835
			c0.01-9.315-0.091-18.633,0.067-27.946c0.046-2.712-0.56-4.085-3.488-3.628c-0.317,0.05-0.672-0.139-1.149-0.25
			c0-1.434,0-2.813,0-4.332c9.147,0,18.148,0,27.313,0c0,2.895,0,5.702,0,8.648c-1.501,0-2.885,0-4.239,0
			c-0.869-4.027-0.869-4.028-5.099-4.028c-2.15,0-4.301,0.049-6.449-0.011c-1.544-0.043-2.32,0.454-2.264,2.15
			c0.092,2.773-0.094,5.562,0.115,8.322c0.051,0.678,1.091,1.664,1.825,1.822c1.37,0.295,2.86-0.027,4.278,0.117
			c2.191,0.224,3.539-0.328,3.099-3.021c1.535,0,2.917,0,4.48,0c0,3.569,0,7.093,0,10.749c-1.442,0-2.755,0-4.24,0
			c-0.174-0.875-0.356-1.797-0.603-3.038c-2.487,0-4.975-0.082-7.448,0.067c-0.516,0.031-1.392,0.911-1.402,1.414
			c-0.104,5.172-0.063,10.346-0.063,15.716c4.52,0,8.752,0,13.19,0c0.112-1.397,0.218-2.705,0.339-4.217c1.523,0,2.972,0,4.533,0
			C92.771,535.743,92.771,538.584,92.771,541.762z"/>
		<path fill-rule="evenodd" clip-rule="evenodd" fill="#00837E" d="M124.756,498.102c0,2.371,0.013,4.509-0.008,6.647
			c-0.006,0.606-0.107,1.212-0.178,1.963c-1.509,0-2.888,0-4.445,0c-0.041-0.794-0.151-1.492-0.097-2.178
			c0.115-1.462-0.639-1.854-1.939-1.838c-2.955,0.038-5.914-0.064-8.862,0.076c-0.639,0.029-1.757,0.817-1.777,1.293
			c-0.151,3.549-0.083,7.106-0.083,10.831c3.054,0,5.786,0,8.68,0c0.192-0.947,0.379-1.87,0.584-2.881c1.488,0,2.892,0,4.475,0
			c0,3.624,0,7.156,0,10.817c-1.541,0-2.946,0-4.465,0c-0.177-0.932-0.355-1.867-0.555-2.918c-2.821,0-5.561,0-8.521,0
			c0,5.686,0,11.271,0,17.067c4.027,0,8.08,0,12.294,0c0.098-1.377,0.191-2.681,0.3-4.197c1.47,0,2.846,0,4.412,0
			c0,2.932,0,5.831,0,8.939c-8.826,0-17.546,0-26.47,0c0-1.422,0-2.799,0-4.397c1.303-0.08,2.606-0.159,4.195-0.258
			c0.064-1.086,0.177-2.119,0.179-3.151c0.014-8.775,0.008-17.552,0.008-26.327c0-4.449,0-4.449-4.408-5.214c0-1.349,0-2.73,0-4.275
			C106.877,498.102,115.605,498.102,124.756,498.102z"/>
		<path fill-rule="evenodd" clip-rule="evenodd" fill="#00837E" d="M387.477,498.812c0,3.473,0,6.932,0,10.549
			c-1.498,0-2.879,0-4.247,0c-1.197-5.977-6.261-8.512-11.26-5.718c-1.949,1.09-3.032,2.624-3.043,4.967s0.999,4.003,3.021,4.944
			c2.495,1.161,5.052,2.208,7.641,3.143c10.163,3.672,11.248,14.252,6.406,20.88c-3.46,4.735-12.623,6.284-18.35,3
			c-0.301-0.172-0.592-0.359-0.749,0.228c-1.775,0.478-3.549,0.955-5.663,1.523c0-5.342,0-9.958,0-14.723c1.556,0,2.954,0,4.59,0
			c0.093,1.322-0.025,2.69,0.316,3.932c0.792,2.869,4.949,5.549,8.438,5.651c3.854,0.115,7.254-1.983,8.486-5.234
			c1.354-3.576-0.118-7.645-3.609-9.329c-2.951-1.426-6.064-2.512-9.054-3.861c-5.072-2.289-7.158-5.839-6.758-11.262
			c0.301-4.07,4.155-8.567,8.65-9.475c2.264-0.457,4.701-0.198,7.049-0.062C381.967,498.119,384.578,498.5,387.477,498.812z"/>
		<path fill-rule="evenodd" clip-rule="evenodd" fill="#00837E" d="M59.538,498.761c0,3.45,0,6.9,0,10.557c-1.421,0-2.802,0-4.54,0
			c0.325-2.661-0.18-5.42-3.241-5.951c-2.399-0.416-5.292-0.506-7.405,0.472c-4.236,1.96-3.977,7.399,0.285,9.688
			c2.657,1.428,5.514,2.503,8.334,3.601c5.381,2.095,8.833,7.446,8.278,13.018c-0.638,6.409-4.535,10.524-10.474,11.869
			c-4.225,0.956-7.905-0.223-11.637-1.809c0.05,0.276,0.101,0.553,0.151,0.83c-1.634,0.385-3.268,0.771-5.218,1.23
			c0-5.231,0-9.837,0-14.626c1.454,0,2.828,0,4.545,0c-0.753,4.071,1.316,6.603,4.55,8.507c3.099,1.825,8.165,1.179,10.62-1.429
			c2.754-2.927,3.155-7.244,0.536-10.187c-1.235-1.388-3.137-2.239-4.838-3.14c-3.428-1.815-7.437-2.905-10.286-5.359
			c-5.537-4.773-3.159-14.924,3.733-17.476c3.028-1.121,6.11-1.543,9.38-0.671C54.507,498.47,56.864,498.461,59.538,498.761z"/>
		<path fill-rule="evenodd" clip-rule="evenodd" fill="#00837E" d="M394.907,502.356c0-1.349,0-2.73,0-4.415
			c2.223,0,4.347,0,6.472,0c2.132,0,4.265,0,6.596,0c0,1.597,0,2.968,0,4.508c-0.744,0.093-1.542-0.012-2.084,0.312
			c-0.675,0.404-1.617,1.158-1.622,1.767c-0.088,10.561-0.053,21.123-0.029,31.685c0,0.246,0.157,0.49,0.284,0.86
			c1.042,0.068,2.09,0.136,3.473,0.228c0.062,1.375,0.126,2.744,0.201,4.379c-4.516,0-8.824,0-13.294,0c0-1.462,0-2.839,0-4.349
			c1.258-0.099,2.389-0.188,3.772-0.297c0.058-1.109,0.158-2.153,0.159-3.197c0.013-8.861,0.007-17.724,0.007-26.585
			C398.842,503.101,398.841,503.101,394.907,502.356z"/>
	</g>
	<circle fill="#FFC700" cx="208.627" cy="204.867" r="28.767"/>
	<circle fill="#FFC700" cx="179.86" cy="521.211" r="10.885"/>
	<circle fill="#FFC700" cx="265.384" cy="521.027" r="10.885"/>
</g>
</svg>
